# xmcd CD database file
#
# Track frame offsets:
#	150
#	16460
#	33532
#	53812
#	71897
#	89027
#	110486
#	125319
#	140764
#	160431
#	176904
#	191869
#
# Disc length: 2694 seconds
#
# Revision: 2
# Processed by: cddbd v1.5.2PL0 Copyright (c) Steve Scherf et al.
# Submitted via: CDex 1.70beta2
#
DISCID=bb0a840c
DTITLE=Molly Johnson - Messin' Around
DYEAR=2006
DGENRE=Jazz
TTITLE0=Messin' Around
TTITLE1=If You Know Love
TTITLE2=Let's Waste Some Time
TTITLE3=Rain
TTITLE4=Sunday
TTITLE5=Northern Star
TTITLE6=Streets of Philadelphia
TTITLE7=But Not For Me
TTITLE8=Sticks And Stones
TTITLE9=Tristes Souvenirs
TTITLE10=Tonight
TTITLE11=Tangerine
EXTD=YEAR: 2006
EXTT0=
EXTT1=
EXTT2=
EXTT3=
EXTT4=
EXTT5=
EXTT6=
EXTT7=
EXTT8=
EXTT9=
EXTT10=
EXTT11=
PLAYORDER=
